<svg width="460" height="106" viewBox="0 0 460 106" fill="none" xmlns="http://www.w3.org/2000/svg">
<g clip-path="url(#clip0_126_2)">
<path d="M6.4 106L30.72 12.56H46.208L70.4 106H58.752L52.608 81.168H24.32L18.176 106H6.4ZM26.624 71.44H50.176L43.008 42.64C41.6427 37.1787 40.576 32.6133 39.808 28.944C39.04 25.2747 38.5707 22.8853 38.4 21.776C38.2293 22.8853 37.76 25.2747 36.992 28.944C36.224 32.6133 35.1573 37.136 33.792 42.512L26.624 71.44ZM124.75 106C120.654 106 117.07 105.189 113.998 103.568C110.926 101.947 108.537 99.6427 106.83 96.656C105.123 93.6693 104.27 90.1707 104.27 86.16V23.056H80.59V12.56H115.79V86.16C115.79 89.0613 116.601 91.3653 118.222 93.072C119.843 94.6933 122.019 95.504 124.75 95.504H147.15V106H124.75ZM191.9 107.28C186.353 107.28 181.489 106.171 177.308 103.952C173.212 101.733 170.012 98.6187 167.708 94.608C165.489 90.512 164.38 85.776 164.38 80.4V61.2C164.38 55.7387 165.489 51.0027 167.708 46.992C170.012 42.9813 173.212 39.8667 177.308 37.648C181.489 35.4293 186.353 34.32 191.9 34.32C197.447 34.32 202.268 35.4293 206.364 37.648C210.545 39.8667 213.745 42.9813 215.964 46.992C218.268 51.0027 219.42 55.7387 219.42 61.2V73.616H175.644V80.4C175.644 85.9467 177.052 90.2133 179.868 93.2C182.684 96.1013 186.695 97.552 191.9 97.552C196.337 97.552 199.921 96.784 202.652 95.248C205.383 93.6267 207.047 91.2373 207.644 88.08H219.164C218.396 93.968 215.495 98.6613 210.46 102.16C205.511 105.573 199.324 107.28 191.9 107.28ZM208.156 65.936V61.2C208.156 55.6533 206.748 51.3867 203.932 48.4C201.201 45.4133 197.191 43.92 191.9 43.92C186.695 43.92 182.684 45.4133 179.868 48.4C177.052 51.3867 175.644 55.6533 175.644 61.2V64.912H209.052L208.156 65.936ZM236.65 106L261.61 69.776L238.186 35.6H251.754L265.706 57.36C266.303 58.2987 266.858 59.3227 267.37 60.432C267.967 61.5413 268.437 62.4373 268.778 63.12C269.034 62.4373 269.418 61.5413 269.93 60.432C270.527 59.3227 271.125 58.2987 271.722 57.36L285.802 35.6H299.242L275.818 69.904L300.65 106H287.082L271.978 82.96C271.381 82.0213 270.783 80.9547 270.186 79.76C269.674 78.48 269.205 77.456 268.778 76.688C268.437 77.456 267.925 78.48 267.242 79.76C266.645 80.9547 266.005 82.0213 265.322 82.96L250.09 106H236.65ZM316.728 106V12.56H331.832L341.56 42.768C342.499 45.4987 343.352 48.2293 344.12 50.96C344.888 53.6053 345.443 55.6533 345.784 57.104C346.211 55.6533 346.765 53.6053 347.448 50.96C348.131 48.2293 348.899 45.456 349.752 42.64L358.968 12.56H374.072V106H362.808V72.08C362.808 68.3253 362.936 64.0587 363.192 59.28C363.448 54.5013 363.789 49.6373 364.216 44.688C364.643 39.6533 365.069 34.8747 365.496 30.352C366.008 25.744 366.435 21.7333 366.776 18.32L351.672 65.04H339.512L324.28 18.32C324.707 21.648 325.133 25.5307 325.56 29.968C325.987 34.32 326.371 38.9707 326.712 43.92C327.053 48.784 327.352 53.648 327.608 58.512C327.864 63.376 327.992 67.8987 327.992 72.08V106H316.728ZM422.15 107.28C418.907 107.28 416.305 106.341 414.342 104.464C412.465 102.587 411.526 100.069 411.526 96.912C411.526 93.584 412.465 90.9387 414.342 88.976C416.305 87.0133 418.907 86.032 422.15 86.032C425.393 86.032 427.953 87.0133 429.83 88.976C431.793 90.9387 432.774 93.584 432.774 96.912C432.774 100.069 431.793 102.587 429.83 104.464C427.953 106.341 425.393 107.28 422.15 107.28Z" fill="url(#paint0_linear_126_2)"/>
</g>
<defs>
<linearGradient id="paint0_linear_126_2" x1="0" y1="59.5" x2="572" y2="59.5" gradientUnits="userSpaceOnUse">
<stop stop-color="white"/>
<stop offset="1"/>
</linearGradient>
<clipPath id="clip0_126_2">
<rect width="460" height="106" fill="white"/>
</clipPath>
</defs>
</svg>
