<?xml version="1.0" standalone="no"?>
<!DOCTYPE svg PUBLIC "-//W3C//DTD SVG 20010904//EN"
 "http://www.w3.org/TR/2001/REC-SVG-20010904/DTD/svg10.dtd">
<svg version="1.0" xmlns="http://www.w3.org/2000/svg"
 width="612.000000pt" height="408.000000pt" viewBox="0 0 612.000000 408.000000"
 preserveAspectRatio="xMidYMid meet">

<g transform="translate(0.000000,408.000000) scale(0.100000,-0.100000)"
fill="#000000" stroke="none">
<path d="M3460 3250 c0 -115 -3 -210 -7 -210 -5 1 -19 7 -33 15 -14 8 -32 14
-40 14 -8 0 -1 -6 15 -13 34 -15 82 -63 72 -72 -3 -3 -18 3 -33 15 -44 35 -95
44 -148 26 -34 -12 -51 -13 -66 -5 -42 22 -87 -31 -74 -88 l6 -27 -24 27 c-12
14 -33 31 -45 37 -32 16 -89 13 -107 -5 -27 -26 -18 -36 13 -13 25 19 33 20
64 10 19 -6 53 -27 75 -47 l41 -35 -6 50 c-7 58 6 81 43 81 29 0 29 0 3 -45
-19 -31 -20 -42 -11 -71 9 -32 1 -47 -13 -24 -4 6 -11 8 -16 4 -5 -3 -20 1
-33 9 -35 24 -90 31 -117 16 -13 -7 -34 -12 -46 -10 -31 3 -63 -16 -63 -39 0
-23 -8 -24 -46 -10 -15 6 -29 8 -32 6 -8 -8 23 -33 36 -28 6 2 12 -2 12 -8 0
-7 -8 -10 -17 -7 -10 2 -25 7 -33 9 -8 3 -11 3 -6 0 5 -2 -16 -16 -45 -31 -64
-31 -99 -78 -98 -130 1 -37 3 -35 13 11 8 37 61 95 108 119 47 24 50 12 4 -19
-66 -45 -94 -163 -63 -256 l16 -46 -168 0 c-92 0 -230 -3 -305 -7 l-137 -6 6
-39 c4 -21 5 -38 3 -38 -3 0 -29 31 -59 70 -41 53 -58 68 -73 64 -10 -4 -23 0
-28 7 -8 11 -9 10 -4 -3 7 -23 -19 -24 -28 -2 -7 19 2 37 15 29 5 -3 6 1 3 9
-7 19 -64 22 -82 4 -7 -7 -12 -23 -11 -37 0 -24 1 -24 9 -6 5 11 9 15 9 8 1
-6 4 -19 8 -29 4 -12 3 -15 -5 -10 -7 4 -12 1 -12 -6 0 -8 -12 -18 -28 -24
-22 -9 -35 -29 -71 -117 -24 -59 -47 -107 -52 -107 -5 0 -9 15 -9 33 0 17 -5
39 -10 47 -8 13 -10 13 -10 -2 0 -9 5 -39 10 -65 10 -46 8 -55 -45 -187 -30
-76 -55 -144 -54 -150 0 -6 25 37 55 97 30 59 58 107 62 107 4 0 16 -48 26
-107 10 -60 20 -120 23 -135 5 -27 5 -27 -63 -30 l-69 -3 -3 -41 -3 -41 -76
-7 c-42 -3 -88 -5 -102 -5 -25 1 -25 2 4 9 20 6 0 8 -65 8 -52 0 -100 -3 -107
-5 -8 -3 -2 -25 20 -69 24 -49 29 -67 19 -73 -19 -12 -11 -61 10 -61 16 0 18
-11 19 -87 1 -87 5 -226 13 -375 3 -60 0 -78 -11 -82 -8 -3 -73 -6 -143 -6
-120 0 -131 -2 -155 -23 -54 -46 -29 -137 44 -157 26 -7 276 -9 750 -8 391 2
712 0 713 -4 0 -5 1 -13 2 -18 1 -7 -36 -13 -89 -16 -49 -3 -115 -8 -145 -13
l-55 -7 95 -8 c52 -4 239 -21 414 -37 176 -16 359 -29 407 -29 73 0 773 64
804 74 5 1 -52 8 -127 15 -75 7 -141 10 -147 6 -17 -10 -13 11 4 25 24 20 510
7 639 -17 55 -10 101 -23 103 -30 10 -31 -207 -57 -687 -83 l-345 -19 405 4
c547 6 722 25 736 81 7 29 -8 50 -43 59 -14 3 -23 8 -21 11 3 2 97 5 209 7
218 2 236 6 258 54 18 40 13 78 -15 107 -26 25 -31 26 -145 26 l-119 0 0 275
c0 268 0 275 20 275 16 0 20 7 20 35 l0 35 -86 0 -85 0 7 45 6 45 -112 0 -111
0 3 -42 3 -43 -269 0 -269 0 -1 101 c-1 114 -10 133 -72 156 -31 11 -34 16
-34 50 l0 39 260 -3 c143 -2 261 1 263 5 1 4 21 0 43 -10 36 -15 41 -21 42
-51 3 -74 -1 -72 142 -72 l128 0 6 44 c7 42 8 44 50 49 23 3 55 11 71 17 37
14 21 26 -45 36 -25 4 -49 9 -53 11 -5 3 10 21 33 40 22 20 40 37 38 38 -2 2
-25 0 -51 -5 -90 -14 -61 18 50 54 29 10 55 22 58 27 9 14 -44 31 -101 32 -45
1 -56 -3 -99 -38 -42 -34 -46 -36 -31 -13 10 15 32 38 51 52 37 29 72 80 85
126 7 23 6 30 -3 27 -7 -3 -11 -9 -10 -15 2 -6 -3 -9 -11 -6 -14 5 -61 -35
-88 -76 -20 -31 -32 -22 -18 14 13 35 12 80 -3 131 l-12 39 -23 -38 c-12 -20
-19 -42 -16 -48 4 -6 2 -8 -4 -4 -6 3 -13 -3 -17 -14 -8 -24 -21 -26 -29 -4
-3 9 -6 207 -6 440 l0 424 -250 0 -250 0 -2 -197 -1 -198 -9 179 c-5 98 -7
189 -4 202 6 21 13 23 74 26 l67 3 0 137 0 138 -307 0 -308 0 0 -210z m215
-10 c-7 -11 -68 -7 -72 5 -2 7 12 9 37 7 22 -2 38 -7 35 -12z m77 -3 c-11 -5
-29 -6 -39 -2 -15 7 -13 9 12 15 38 8 56 0 27 -13z m5 -43 c-3 -3 -12 -4 -19
-1 -8 3 -5 6 6 6 11 1 17 -2 13 -5z m43 2 c0 -3 -4 -8 -10 -11 -5 -3 -10 -1
-10 4 0 6 5 11 10 11 6 0 10 -2 10 -4z m70 -6 c0 -5 -11 -10 -25 -10 -14 0
-25 5 -25 10 0 6 11 10 25 10 14 0 25 -4 25 -10z m-307 -47 c-7 -2 -21 -2 -30
0 -10 3 -4 5 12 5 17 0 24 -2 18 -5z m306 -49 c2 -2 -12 -4 -33 -4 -22 0 -35
4 -31 10 5 9 52 4 64 -6z m-312 0 c-3 -3 -12 -4 -19 -1 -8 3 -5 6 6 6 11 1 17
-2 13 -5z m66 -1 c-7 -2 -19 -2 -25 0 -7 3 -2 5 12 5 14 0 19 -2 13 -5z m157
-93 c0 -5 -4 -10 -10 -10 -5 0 -10 5 -10 10 0 6 5 10 10 10 6 0 10 -4 10 -10z
m90 0 c0 -5 -16 -10 -35 -10 -19 0 -35 5 -35 10 0 6 16 10 35 10 19 0 35 -4
35 -10z m-317 -7 c-7 -2 -19 -2 -25 0 -7 3 -2 5 12 5 14 0 19 -2 13 -5z m-336
-90 c-3 -10 -5 -4 -5 12 0 17 2 24 5 18 2 -7 2 -21 0 -30z m396 -10 c-7 -2
-21 -2 -30 0 -10 3 -4 5 12 5 17 0 24 -2 18 -5z m-566 -157 c-4 -9 -11 -16
-17 -16 -17 0 -24 31 -9 41 18 11 34 -5 26 -25z m901 -188 l-3 -203 -115 0
-115 0 -3 52 -3 53 -167 2 c-143 3 -166 5 -163 18 2 8 6 45 9 83 3 54 7 67 21
67 23 0 41 20 41 44 0 20 -1 20 -16 -2 -18 -26 -31 -28 -56 -5 -33 29 -21 38
55 40 58 2 75 6 88 23 16 18 31 20 215 23 110 1 202 3 207 5 4 1 6 -89 5 -200z
m-452 177 c-21 -16 -32 -13 -21 4 3 6 14 11 23 11 15 -1 15 -2 -2 -15z m-686
-169 c0 -7 8 -24 19 -37 18 -24 18 -55 0 -43 -13 7 -11 -1 6 -43 17 -41 18
-43 7 -43 -25 0 -69 141 -55 177 6 16 23 7 23 -11z m115 -30 l40 -14 -28 -11
c-24 -9 -33 -8 -53 8 -14 11 -25 23 -26 28 0 4 -5 17 -10 28 -10 18 -8 18 14
-2 13 -13 42 -29 63 -37z m-971 -12 c10 -27 7 -44 -9 -44 -10 0 -15 10 -15 30
0 32 14 40 24 14z m1016 -110 c-7 -7 -28 -14 -47 -14 -30 0 -34 -2 -23 -15 8
-9 9 -15 2 -15 -15 0 -26 20 -28 50 -1 14 0 17 3 8 6 -24 24 -23 30 1 3 12 15
21 32 23 31 4 48 -17 31 -38z m4 -104 c23 0 42 7 55 21 l20 21 27 -21 c15 -11
40 -21 55 -21 16 0 29 -5 29 -11 0 -5 -4 -8 -9 -4 -5 3 -13 0 -17 -6 -5 -9 1
-10 20 -5 15 4 26 2 26 -3 0 -6 7 -8 15 -4 14 5 14 7 0 23 -12 14 -13 20 -4
26 11 7 39 -20 39 -37 0 -10 -41 -24 -59 -20 -8 1 -10 -2 -6 -9 6 -9 2 -9 -15
0 -20 11 -21 10 -11 -9 15 -27 14 -31 -7 -31 -10 0 -23 -5 -29 -11 -17 -17
-33 -1 -33 32 0 16 -4 29 -10 29 -5 0 -10 -3 -10 -7 0 -10 -93 -63 -110 -63
-6 0 -8 5 -4 12 4 7 3 8 -4 4 -11 -7 -6 -36 7 -36 3 0 30 14 60 30 30 17 55
29 57 28 1 -2 4 -13 6 -26 3 -20 -6 -27 -62 -51 -58 -25 -65 -31 -62 -54 3
-23 -2 -27 -40 -37 -158 -41 -218 -68 -218 -101 0 -20 -34 -52 -44 -42 -4 4
-4 0 0 -10 4 -11 1 -17 -7 -18 -8 -1 0 -5 16 -9 l30 -8 -32 -1 c-18 0 -33 -6
-33 -12 0 -5 -4 -8 -9 -5 -5 3 -14 -1 -21 -9 -7 -8 -9 -15 -6 -15 4 0 1 -10
-6 -22 -6 -13 -14 -41 -17 -63 l-6 -40 -102 -3 c-93 -2 -103 -1 -103 15 0 10
-9 160 -20 333 -11 173 -20 318 -20 322 0 4 125 9 278 10 l277 3 42 -42 c34
-34 50 -43 77 -43z m602 82 c6 -4 14 -53 18 -112 4 -58 10 -120 13 -137 5 -33
5 -33 -36 -33 -40 0 -41 1 -41 33 0 39 -9 54 -35 58 -13 3 -23 18 -32 48 -7
25 -17 49 -22 54 -6 6 -34 1 -72 -12 -35 -11 -69 -21 -76 -21 -17 0 -17 42 1
85 13 31 19 34 63 38 92 7 208 7 219 -1z m-1713 -94 c-2 -24 -9 -68 -14 -97
-5 -30 -5 -59 -1 -63 4 -4 75 19 157 52 82 33 155 60 162 60 8 0 13 -12 13
-32 0 -18 7 -139 15 -268 17 -256 13 -342 -14 -339 -65 6 -241 -3 -241 -12 0
-19 141 -333 159 -353 15 -18 15 -18 -5 -6 -12 7 -29 32 -39 54 -18 43 -26 62
-95 214 -22 51 -38 97 -34 104 4 6 3 8 -3 5 -6 -4 -20 18 -33 53 -12 32 -27
61 -34 64 -6 2 -4 5 5 5 9 1 19 -9 22 -21 4 -13 13 -32 22 -43 14 -18 15 -13
12 70 l-2 90 -50 5 -49 5 -27 155 -26 154 45 93 c25 51 48 93 52 93 5 0 6 -19
3 -42z m1407 -16 c0 -18 -6 -21 -99 -48 -9 -3 2 5 24 17 22 12 44 28 48 35 11
20 27 17 27 -4z m553 -49 c-7 -2 -19 -2 -25 0 -7 3 -2 5 12 5 14 0 19 -2 13
-5z m461 -59 c3 -8 2 -12 -4 -9 -6 3 -10 10 -10 16 0 14 7 11 14 -7z m-1234
-50 c0 -8 -4 -12 -10 -9 -5 3 -10 10 -10 16 0 5 5 9 10 9 6 0 10 -7 10 -16z
m-65 -14 c3 -5 1 -10 -4 -10 -6 0 -11 5 -11 10 0 6 2 10 4 10 3 0 8 -4 11 -10z
m515 -256 c0 -13 -9 -33 -20 -44 -19 -19 -32 -20 -297 -18 l-278 3 274 2 c238
3 277 6 293 20 21 19 23 53 6 73 -11 12 -10 12 5 1 9 -7 17 -24 17 -37z m-362
-2 c2 -7 -3 -12 -12 -12 -9 0 -16 7 -16 16 0 17 22 14 28 -4z m57 8 c3 -6 -1
-13 -10 -16 -19 -8 -30 0 -20 15 8 14 22 14 30 1z m-361 -9 c3 -5 0 -14 -8
-20 -10 -9 -15 -8 -19 3 -9 22 15 37 27 17z m-38 -32 c10 -17 -13 -36 -27 -22
-12 12 -4 33 11 33 5 0 12 -5 16 -11z m81 -35 c-3 -3 -12 -4 -19 -1 -8 3 -5 6
6 6 11 1 17 -2 13 -5z m-52 -15 c-11 -6 -30 -23 -42 -38 -13 -14 -23 -21 -23
-14 0 14 57 63 73 63 7 0 3 -5 -8 -11z m-1005 -33 c8 -2 -34 -4 -95 -4 -60 0
-96 3 -80 7 28 6 142 4 175 -3z m717 -203 c-3 -10 -5 -4 -5 12 0 17 2 24 5 18
2 -7 2 -21 0 -30z m-12 -43 c-10 -11 -22 -20 -28 -20 -5 0 1 9 14 20 31 25 37
25 14 0z m1740 -67 c-53 -12 -42 -18 40 -23 l90 -6 -92 -2 c-51 -1 -93 0 -93
2 0 23 16 36 44 35 20 -1 24 -3 11 -6z m108 0 c-13 -2 -35 -2 -50 0 -16 2 -5
4 22 4 28 0 40 -2 28 -4z m64 -13 c3 -10 2 -11 -4 -4 -4 6 -15 14 -23 17 -11
5 -9 6 4 4 11 -1 21 -9 23 -17z m-1935 -52 c-8 -8 -9 -4 -5 13 4 13 8 18 11
10 2 -7 -1 -18 -6 -23z m65 0 c-3 -8 -6 -5 -6 6 -1 11 2 17 5 13 3 -3 4 -12 1
-19z m-90 -14 c-3 -3 -12 -4 -19 -1 -8 3 -5 6 6 6 11 1 17 -2 13 -5z m168 -4
c3 -5 -3 -10 -14 -10 -12 0 -21 -6 -21 -12 0 -9 -3 -8 -9 2 -6 8 -7 18 -5 22
7 11 42 10 49 -2z m0 -50 c4 -6 -7 -10 -25 -10 -18 0 -29 4 -25 10 3 6 15 10
25 10 10 0 22 -4 25 -10z m202 -6 c-3 -3 -12 -4 -19 -1 -8 3 -5 6 6 6 11 1 17
-2 13 -5z m-577 -46 c0 -7 3 -23 6 -35 8 -28 -12 -31 -21 -3 -3 11 -12 20 -20
20 -10 0 -12 -7 -5 -30 7 -26 5 -33 -15 -46 -14 -9 -30 -14 -37 -11 -9 4 -8 6
3 6 19 1 48 31 31 31 -6 0 -13 -4 -17 -9 -3 -5 -18 -12 -34 -16 -23 -5 -28
-11 -25 -28 3 -12 -5 -2 -17 23 -11 25 -22 50 -23 55 -1 6 -6 16 -10 24 -7 11
-6 12 5 5 16 -10 35 -14 67 -16 15 0 22 -7 22 -20 0 -11 5 -18 13 -15 6 2 10
13 9 23 -5 24 -3 23 -40 26 -61 4 -32 16 33 13 37 -2 63 1 59 6 -3 5 0 9 5 9
6 0 11 -6 11 -12z m80 -33 c0 -5 -5 -3 -10 5 -5 8 -10 20 -10 25 0 6 5 3 10
-5 5 -8 10 -19 10 -25z m1872 -27 c-7 -7 -12 -8 -12 -2 0 14 12 26 19 19 2 -3
-1 -11 -7 -17z m-603 -5 c-39 -6 -57 -32 -62 -88 l-3 -50 -2 51 c-2 60 22 95
66 93 l27 -2 -26 -4z m-1042 -100 c-2 -16 -4 -3 -4 27 0 30 2 43 4 28 2 -16 2
-40 0 -55z m1195 7 c31 -8 32 -8 5 -9 -20 -1 -39 10 -65 37 -22 21 -24 25 -6
8 18 -15 47 -32 66 -36z m-1480 30 c2 -7 55 -11 136 -12 122 -1 132 -2 132
-19 0 -17 -9 -19 -89 -19 -50 0 -93 -4 -96 -10 -3 -6 -50 -10 -106 -10 -91 0
-99 1 -99 19 0 11 -5 23 -11 27 -8 4 -9 -1 -5 -17 5 -18 5 -20 -3 -8 -6 8 -7
25 -4 37 5 20 12 22 73 22 38 0 70 -5 72 -10z m285 -132 c-3 -8 -6 -5 -6 6 -1
11 2 17 5 13 3 -3 4 -12 1 -19z"/>
<path d="M2860 2536 c0 -2 7 -7 16 -10 8 -3 12 -2 9 4 -6 10 -25 14 -25 6z"/>
<path d="M2908 2513 c7 -3 16 -2 19 1 4 3 -2 6 -13 5 -11 0 -14 -3 -6 -6z"/>
<path d="M2937 2416 c-4 -10 0 -12 14 -9 22 6 26 23 5 23 -8 0 -16 -6 -19 -14z"/>
<path d="M2827 2343 c-12 -11 -8 -22 11 -32 14 -7 19 -6 19 4 0 8 -7 11 -15 7
-11 -4 -14 -1 -9 11 7 18 5 21 -6 10z"/>
<path d="M2408 2313 c7 -3 16 -2 19 1 4 3 -2 6 -13 5 -11 0 -14 -3 -6 -6z"/>
<path d="M2468 2313 c7 -3 16 -2 19 1 4 3 -2 6 -13 5 -11 0 -14 -3 -6 -6z"/>
<path d="M2518 2313 c7 -3 16 -2 19 1 4 3 -2 6 -13 5 -11 0 -14 -3 -6 -6z"/>
<path d="M2568 2313 c7 -3 16 -2 19 1 4 3 -2 6 -13 5 -11 0 -14 -3 -6 -6z"/>
<path d="M3016 2295 c-11 -8 -15 -15 -10 -15 6 0 19 7 30 15 10 8 15 14 9 14
-5 0 -19 -6 -29 -14z"/>
<path d="M3200 2301 c0 -6 4 -13 10 -16 6 -3 7 1 4 9 -7 18 -14 21 -14 7z"/>
<path d="M3035 2275 c-22 -14 -35 -25 -30 -25 6 0 20 7 31 15 12 8 24 12 26 9
3 -3 8 2 11 11 8 19 10 19 -38 -10z"/>
<path d="M3080 2270 c0 -6 7 -10 15 -10 8 0 15 2 15 4 0 2 -7 6 -15 10 -8 3
-15 1 -15 -4z"/>
<path d="M2468 2243 c7 -3 16 -2 19 1 4 3 -2 6 -13 5 -11 0 -14 -3 -6 -6z"/>
<path d="M2518 2243 c7 -3 16 -2 19 1 4 3 -2 6 -13 5 -11 0 -14 -3 -6 -6z"/>
<path d="M2568 2243 c7 -3 16 -2 19 1 4 3 -2 6 -13 5 -11 0 -14 -3 -6 -6z"/>
<path d="M2628 2243 c7 -3 16 -2 19 1 4 3 -2 6 -13 5 -11 0 -14 -3 -6 -6z"/>
<path d="M2678 2243 c7 -3 16 -2 19 1 4 3 -2 6 -13 5 -11 0 -14 -3 -6 -6z"/>
<path d="M2970 2230 c-9 -6 -10 -10 -3 -10 6 0 15 5 18 10 8 12 4 12 -15 0z"/>
<path d="M2520 2180 c-13 -8 -12 -10 3 -10 9 0 17 5 17 10 0 12 -1 12 -20 0z"/>
<path d="M2620 2180 c0 -6 7 -10 15 -10 8 0 15 2 15 4 0 2 -7 6 -15 10 -8 3
-15 1 -15 -4z"/>
<path d="M2670 2180 c0 -6 7 -10 15 -10 8 0 15 2 15 4 0 2 -7 6 -15 10 -8 3
-15 1 -15 -4z"/>
<path d="M2730 2180 c0 -5 5 -10 10 -10 6 0 10 5 10 10 0 6 -4 10 -10 10 -5 0
-10 -4 -10 -10z"/>
<path d="M2468 2173 c7 -3 16 -2 19 1 4 3 -2 6 -13 5 -11 0 -14 -3 -6 -6z"/>
<path d="M2468 2113 c7 -3 16 -2 19 1 4 3 -2 6 -13 5 -11 0 -14 -3 -6 -6z"/>
<path d="M2518 2113 c7 -3 16 -2 19 1 4 3 -2 6 -13 5 -11 0 -14 -3 -6 -6z"/>
<path d="M2678 2113 c7 -3 16 -2 19 1 4 3 -2 6 -13 5 -11 0 -14 -3 -6 -6z"/>
<path d="M2468 2043 c7 -3 16 -2 19 1 4 3 -2 6 -13 5 -11 0 -14 -3 -6 -6z"/>
<path d="M2518 2043 c7 -3 16 -2 19 1 4 3 -2 6 -13 5 -11 0 -14 -3 -6 -6z"/>
<path d="M2568 2043 c7 -3 16 -2 19 1 4 3 -2 6 -13 5 -11 0 -14 -3 -6 -6z"/>
<path d="M2468 1973 c7 -3 16 -2 19 1 4 3 -2 6 -13 5 -11 0 -14 -3 -6 -6z"/>
<path d="M2518 1973 c7 -3 16 -2 19 1 4 3 -2 6 -13 5 -11 0 -14 -3 -6 -6z"/>
<path d="M2628 1973 c7 -3 16 -2 19 1 4 3 -2 6 -13 5 -11 0 -14 -3 -6 -6z"/>
<path d="M2518 1913 c7 -3 16 -2 19 1 4 3 -2 6 -13 5 -11 0 -14 -3 -6 -6z"/>
<path d="M2578 1913 c7 -3 16 -2 19 1 4 3 -2 6 -13 5 -11 0 -14 -3 -6 -6z"/>
<path d="M1870 1985 c0 -8 7 -15 15 -15 8 0 15 7 15 15 0 8 -7 15 -15 15 -8 0
-15 -7 -15 -15z"/>
<path d="M2110 1188 c0 -5 5 -18 10 -29 9 -15 15 -17 30 -9 28 15 25 24 -10
37 -19 7 -30 8 -30 1z"/>
<path d="M2180 2930 l0 -330 230 0 230 0 0 330 0 330 -230 0 -230 0 0 -330z
m260 269 c0 -5 -45 -9 -100 -9 -59 0 -100 4 -100 10 0 6 40 9 100 8 55 0 100
-5 100 -9z m30 1 c0 -5 -4 -10 -10 -10 -5 0 -10 5 -10 10 0 6 5 10 10 10 6 0
10 -4 10 -10z m30 0 c0 -5 -4 -10 -10 -10 -5 0 -10 5 -10 10 0 6 5 10 10 10 6
0 10 -4 10 -10z m30 0 c0 -5 -4 -10 -10 -10 -5 0 -10 5 -10 10 0 6 5 10 10 10
6 0 10 -4 10 -10z m-160 -30 c0 -6 -28 -10 -65 -10 -37 0 -65 4 -65 10 0 6 28
10 65 10 37 0 65 -4 65 -10z m40 6 c0 -3 -4 -8 -10 -11 -5 -3 -10 -1 -10 4 0
6 5 11 10 11 6 0 10 -2 10 -4z m60 -6 c0 -5 -4 -10 -10 -10 -5 0 -10 5 -10 10
0 6 5 10 10 10 6 0 10 -4 10 -10z m30 0 c0 -5 -2 -10 -4 -10 -3 0 -8 5 -11 10
-3 6 -1 10 4 10 6 0 11 -4 11 -10z m30 0 c0 -5 -4 -10 -10 -10 -5 0 -10 5 -10
10 0 6 5 10 10 10 6 0 10 -4 10 -10z m-185 -59 c3 -5 1 -12 -5 -16 -5 -3 -10
1 -10 9 0 18 6 21 15 7z m30 0 c3 -5 1 -12 -5 -16 -5 -3 -10 1 -10 9 0 18 6
21 15 7z m-115 -5 c0 -3 -4 -8 -10 -11 -5 -3 -10 -1 -10 4 0 6 5 11 10 11 6 0
10 -2 10 -4z m53 -3 c-7 -2 -21 -2 -30 0 -10 3 -4 5 12 5 17 0 24 -2 18 -5z
m63 -31 c-7 -12 -136 -14 -136 -2 0 6 29 10 71 10 38 0 68 -3 65 -8z m54 4 c0
-2 -9 -6 -20 -9 -11 -3 -20 -1 -20 4 0 5 9 9 20 9 11 0 20 -2 20 -4z m40 -36
c0 -6 -45 -10 -115 -10 -70 0 -115 4 -115 10 0 6 45 10 115 10 70 0 115 -4
115 -10z m-210 -60 c0 -5 -4 -10 -10 -10 -5 0 -10 5 -10 10 0 6 5 10 10 10 6
0 10 -4 10 -10z m30 0 c0 -5 -4 -10 -10 -10 -5 0 -10 5 -10 10 0 6 5 10 10 10
6 0 10 -4 10 -10z m30 0 c0 -5 -4 -10 -10 -10 -5 0 -10 5 -10 10 0 6 5 10 10
10 6 0 10 -4 10 -10z m30 0 c0 -5 -4 -10 -10 -10 -5 0 -10 5 -10 10 0 6 5 10
10 10 6 0 10 -4 10 -10z m-47 -37 c-13 -2 -33 -2 -45 0 -13 2 -3 4 22 4 25 0
35 -2 23 -4z m-23 -48 c0 -12 15 -15 75 -15 43 0 75 -4 75 -10 0 -6 -33 -10
-80 -10 -64 0 -80 3 -80 15 0 8 -7 15 -15 15 -8 0 -15 5 -15 10 0 6 9 10 20
10 11 0 20 -7 20 -15z m220 -25 c0 -5 -11 -10 -25 -10 -14 0 -25 5 -25 10 0 6
11 10 25 10 14 0 25 -4 25 -10z m-210 -36 c0 -2 -12 -4 -26 -4 -14 0 -23 4
-20 9 6 8 46 4 46 -5z m200 4 c0 -5 -43 -8 -96 -8 -52 0 -93 3 -91 8 3 4 46 7
96 7 50 0 91 -3 91 -7z m-70 -38 c0 -6 -32 -10 -75 -10 -43 0 -75 4 -75 10 0
6 32 10 75 10 43 0 75 -4 75 -10z m130 0 c0 -5 -25 -10 -55 -10 -30 0 -55 5
-55 10 0 6 25 10 55 10 30 0 55 -4 55 -10z m-290 -70 c0 -5 -2 -10 -4 -10 -3
0 -8 5 -11 10 -3 6 -1 10 4 10 6 0 11 -4 11 -10z m30 0 c0 -5 -2 -10 -4 -10
-3 0 -8 5 -11 10 -3 6 -1 10 4 10 6 0 11 -4 11 -10z m-30 -30 c0 -5 -4 -10
-10 -10 -5 0 -10 5 -10 10 0 6 5 10 10 10 6 0 10 -4 10 -10z m30 0 c0 -5 -4
-10 -10 -10 -5 0 -10 5 -10 10 0 6 5 10 10 10 6 0 10 -4 10 -10z"/>
<path d="M3250 3185 c0 -8 5 -15 10 -15 6 0 10 7 10 15 0 8 -4 15 -10 15 -5 0
-10 -7 -10 -15z"/>
<path d="M2010 3170 c0 -11 7 -20 15 -20 8 0 15 9 15 20 0 11 -7 20 -15 20 -8
0 -15 -9 -15 -20z"/>
<path d="M2090 2811 c0 -6 5 -13 10 -16 6 -3 10 1 10 9 0 9 -4 16 -10 16 -5 0
-10 -4 -10 -9z"/>
<path d="M2055 2580 c-4 -6 1 -7 11 -3 13 5 15 3 9 -7 -5 -9 -4 -11 4 -6 6 4
9 12 6 17 -8 12 -22 12 -30 -1z"/>
<path d="M4609 1795 c-3 -2 -57 -5 -121 -6 -103 -1 -115 -3 -111 -17 3 -15 19
-17 123 -14 111 3 120 5 120 23 0 19 -3 23 -11 14z"/>
<path d="M4692 1733 c5 -26 38 -29 38 -4 0 15 -6 21 -21 21 -14 0 -19 -5 -17
-17z"/>
</g>
</svg>
